<svg xmlns="http://www.w3.org/2000/svg" width="2880" height="1800" viewBox="0 0 2880 1800">
  <defs>
    <style>
      .cls-1 {
        fill: #fff;
        fill-rule: evenodd;
      }
    </style>
  </defs>
  <path id="Rounded_Rectangle_1" data-name="Rounded Rectangle 1" class="cls-1" d="M-108-93H2919V1857H-108V-93ZM1506,35s256.7,36.07,303,97c43.69,57.5-47.41-122.711-274-137C1297.89-19.953,1506,35,1506,35Zm34,49s206.34,49.594,239,114S1762.98,81.211,1529,40,1540,84,1540,84Zm6,27c38.29,6.578,107.41,25.9,150,91s-7.04-91.742-155-113S1507.71,104.422,1546,111ZM1359,1800s28.12-20.54,18-84-35.15-178.63,112-180,188.09,1.59,226-35,31.37-132.78,22-147-61.39-59.07-23-87,55.28-49.37,53-74-36.25-33.76-1-44,37-49,37-49-46.02-87.75,36-121c23.85-9.667,48.93-5.893,77-41s-12.11-97.25-29-112-138.98-189.555-140-193-22.62-43.469-7-77c1.57-3.359,55.07-28.31,28-85s-29.46-39.855-39-58c-6.2-11.779-53.94-90.091-69-150s-52.76-136.273-76-148S1402-3,1402-3L-33-35-202,1532-3,1920ZM2828,752,1274-31h296a10,10,0,0,1,10,10V200a10,10,0,0,1-10,10H1274a10,10,0,0,1-10-10V-21A10,10,0,0,1,1274-31Z"/>
</svg>
